<svg width="16" height="16" viewBox="0 0 16 16" fill="none" xmlns="http://www.w3.org/2000/svg">
<g clip-path="url(#clip0_222_1012)">
<mask id="path-1-inside-1_222_1012" fill="white">
<path fill-rule="evenodd" clip-rule="evenodd" d="M6.67203 1.50471e-08C5.60802 9.06589e-05 4.55946 0.25462 3.61383 0.742353C2.6682 1.23009 1.85292 1.93688 1.23601 2.80376C0.619105 3.67065 0.218458 4.67249 0.0674994 5.7257C-0.0834596 6.7789 0.0196459 7.85294 0.368214 8.8582C0.716782 9.86346 1.3007 10.7708 2.07127 11.5045C2.84183 12.2382 3.77668 12.777 4.79783 13.0759C5.81898 13.3749 6.89682 13.4253 7.94141 13.223C8.98601 13.0206 9.96708 12.5715 10.8028 11.9129L13.6696 14.7796C13.8177 14.9226 14.016 15.0018 14.2218 15C14.4276 14.9982 14.6245 14.9156 14.7701 14.7701C14.9156 14.6245 14.9982 14.4277 15 14.2218C15.0018 14.016 14.9226 13.8177 14.7796 13.6697L11.9128 10.8029C12.6884 9.81904 13.1713 8.63669 13.3062 7.39118C13.4412 6.14567 13.2228 4.88732 12.676 3.76014C12.1292 2.63296 11.276 1.6825 10.2142 1.01752C9.15245 0.352541 7.92489 -8.41056e-05 6.67203 1.50471e-08ZM1.56946 6.67235C1.56946 5.31911 2.10705 4.0213 3.06397 3.06442C4.02089 2.10754 5.31875 1.56996 6.67203 1.56996C8.02532 1.56996 9.32318 2.10754 10.2801 3.06442C11.237 4.0213 11.7746 5.31911 11.7746 6.67235C11.7746 8.02559 11.237 9.3234 10.2801 10.2803C9.32318 11.2372 8.02532 11.7747 6.67203 11.7747C5.31875 11.7747 4.02089 11.2372 3.06397 10.2803C2.10705 9.3234 1.56946 8.02559 1.56946 6.67235Z"/>
</mask>
<path d="M6.67203 1.50471e-08L6.67183 -3H6.67178L6.67203 1.50471e-08ZM10.8028 11.9129L12.924 9.79153L11.0393 7.90688L8.94589 9.55662L10.8028 11.9129ZM13.6696 14.7796L11.5484 16.901L11.5668 16.9194L11.5855 16.9375L13.6696 14.7796ZM14.7796 13.6697L16.9375 11.5855L16.9194 11.5668L16.9009 11.5483L14.7796 13.6697ZM11.9128 10.8029L9.55678 8.94571L7.90642 11.0393L9.7915 12.9243L11.9128 10.8029ZM1.56946 6.67235H-1.43054H1.56946ZM6.67203 1.56996V-1.43004V1.56996ZM11.7746 6.67235H14.7746H11.7746ZM6.67203 1.50471e-08L6.67178 -3C5.12941 -2.99987 3.60943 -2.63091 2.23865 -1.92389L3.61383 0.742353L4.98901 3.4086C5.50949 3.14015 6.08664 3.00005 6.67229 3L6.67203 1.50471e-08ZM3.61383 0.742353L2.23865 -1.92389C0.867866 -1.21688 -0.313968 -0.192312 -1.20825 1.06434L1.23601 2.80376L3.68027 4.54319C4.01981 4.06607 4.46853 3.67705 4.98901 3.4086L3.61383 0.742353ZM1.23601 2.80376L-1.20825 1.06434C-2.10253 2.32099 -2.68332 3.77328 -2.90215 5.30005L0.0674994 5.7257L3.03715 6.15134C3.12023 5.57169 3.34074 5.02031 3.68027 4.54319L1.23601 2.80376ZM0.0674994 5.7257L-2.90215 5.30005C-3.12099 6.82681 -2.97152 8.38377 -2.46623 9.84103L0.368214 8.8582L3.20265 7.87537C3.01081 7.32211 2.95407 6.73099 3.03715 6.15134L0.0674994 5.7257ZM0.368214 8.8582L-2.46623 9.84103C-1.96093 11.2983 -1.11446 12.6136 0.00254612 13.6771L2.07127 11.5045L4.13998 9.33184C3.71587 8.92801 3.3945 8.42864 3.20265 7.87537L0.368214 8.8582ZM2.07127 11.5045L0.00254612 13.6771C1.11955 14.7407 2.47471 15.5217 3.95496 15.9551L4.79783 13.0759L5.6407 10.1968C5.07864 10.0322 4.5641 9.73566 4.13998 9.33184L2.07127 11.5045ZM4.79783 13.0759L3.95496 15.9551C5.43521 16.3884 6.99762 16.4615 8.51185 16.1682L7.94141 13.223L7.37098 10.2777C6.79601 10.3891 6.20275 10.3613 5.6407 10.1968L4.79783 13.0759ZM7.94141 13.223L8.51185 16.1682C10.0261 15.875 11.4482 15.2238 12.6596 14.2692L10.8028 11.9129L8.94589 9.55662C8.48593 9.9191 7.94594 10.1663 7.37098 10.2777L7.94141 13.223ZM10.8028 11.9129L8.68149 14.0343L11.5484 16.901L13.6696 14.7796L15.7909 12.6583L12.924 9.79153L10.8028 11.9129ZM13.6696 14.7796L11.5855 16.9375C12.2994 17.627 13.2555 18.0085 14.2479 17.9999L14.2218 15L14.1957 12.0001C14.7765 11.995 15.336 12.2183 15.7537 12.6217L13.6696 14.7796ZM14.2218 15L14.2479 17.9999C15.2403 17.9912 16.1896 17.5932 16.8914 16.8914L14.7701 14.7701L12.6488 12.6487C13.0595 12.238 13.615 12.0051 14.1957 12.0001L14.2218 15ZM14.7701 14.7701L16.8914 16.8914C17.5931 16.1897 17.9912 15.2403 17.9999 14.2479L15 14.2218L12.0001 14.1958C12.0051 13.615 12.2381 13.0594 12.6488 12.6487L14.7701 14.7701ZM15 14.2218L17.9999 14.2479C18.0085 13.2555 17.627 12.2994 16.9375 11.5855L14.7796 13.6697L12.6218 15.7539C12.2183 15.3361 11.995 14.7766 12.0001 14.1958L15 14.2218ZM14.7796 13.6697L16.9009 11.5483L14.0341 8.68157L11.9128 10.8029L9.7915 12.9243L12.6584 15.791L14.7796 13.6697ZM11.9128 10.8029L14.2688 12.6601C15.3931 11.2339 16.0931 9.51992 16.2888 7.71439L13.3062 7.39118L10.3237 7.06797C10.2494 7.75346 9.98365 8.40419 9.55678 8.94571L11.9128 10.8029ZM13.3062 7.39118L16.2888 7.71439C16.4844 5.90885 16.1678 4.08471 15.3751 2.45072L12.676 3.76014L9.97683 5.06956C10.2778 5.68993 10.398 6.38248 10.3237 7.06797L13.3062 7.39118ZM12.676 3.76014L15.3751 2.45072C14.5825 0.816736 13.3458 -0.561065 11.8066 -1.52501L10.2142 1.01752L8.62191 3.56005C9.20633 3.92606 9.67587 4.44919 9.97683 5.06956L12.676 3.76014ZM10.2142 1.01752L11.8066 -1.52501C10.2674 -2.48896 8.48794 -3.00012 6.67183 -3L6.67203 1.50471e-08L6.67224 3C7.36183 2.99995 8.0375 3.19405 8.62191 3.56005L10.2142 1.01752ZM1.56946 6.67235H4.56946C4.56946 6.1148 4.79095 5.58006 5.18525 5.18578L3.06397 3.06442L0.942687 0.943058C-0.576854 2.46254 -1.43054 4.52343 -1.43054 6.67235H1.56946ZM3.06397 3.06442L5.18525 5.18578C5.57955 4.79149 6.11436 4.56996 6.67203 4.56996V1.56996V-1.43004C4.52313 -1.43004 2.46222 -0.576421 0.942687 0.943058L3.06397 3.06442ZM6.67203 1.56996V4.56996C7.22971 4.56996 7.76452 4.79149 8.15882 5.18578L10.2801 3.06442L12.4014 0.943058C10.8818 -0.576421 8.82094 -1.43004 6.67203 -1.43004V1.56996ZM10.2801 3.06442L8.15882 5.18578C8.55312 5.58006 8.77461 6.1148 8.77461 6.67235H11.7746H14.7746C14.7746 4.52343 13.9209 2.46254 12.4014 0.943058L10.2801 3.06442ZM11.7746 6.67235H8.77461C8.77461 7.2299 8.55312 7.76464 8.15882 8.15892L10.2801 10.2803L12.4014 12.4016C13.9209 10.8822 14.7746 8.82127 14.7746 6.67235H11.7746ZM10.2801 10.2803L8.15882 8.15892C7.76452 8.55321 7.22971 8.77474 6.67203 8.77474V11.7747V14.7747C8.82094 14.7747 10.8818 13.9211 12.4014 12.4016L10.2801 10.2803ZM6.67203 11.7747V8.77474C6.11436 8.77474 5.57955 8.55321 5.18525 8.15892L3.06397 10.2803L0.942687 12.4016C2.46222 13.9211 4.52313 14.7747 6.67203 14.7747V11.7747ZM3.06397 10.2803L5.18525 8.15892C4.79095 7.76464 4.56946 7.2299 4.56946 6.67235H1.56946H-1.43054C-1.43054 8.82127 -0.576854 10.8822 0.942687 12.4016L3.06397 10.2803Z" fill="#11200B" mask="url(#path-1-inside-1_222_1012)"/>
</g>
<defs>
<clipPath id="clip0_222_1012">
<rect width="16" height="16" fill="white"/>
</clipPath>
</defs>
</svg>
